<svg xmlns="http://www.w3.org/2000/svg" viewBox="0 0 32 32">
  <defs>
    <radialGradient id="squidBody" cx="45%" cy="35%" r="75%">
      <stop offset="0%" stop-color="#22c55e"/>
      <stop offset="70%" stop-color="#16a34a"/>
      <stop offset="100%" stop-color="#15803d"/>
    </radialGradient>
    <linearGradient id="tentacleGreen" x1="0%" y1="0%" x2="100%" y2="100%">
      <stop offset="0%" stop-color="#4ade80"/>
      <stop offset="100%" stop-color="#22c55e"/>
    </linearGradient>
  </defs>
  <!-- Mythical sea creature -->
  <g>
    <!-- Mystical body -->
    <ellipse cx="16" cy="13" rx="7" ry="10" fill="url(#squidBody)" stroke="#166534" stroke-width="0.8"/>
    
    <!-- Mystical head fin -->
    <ellipse cx="16" cy="5" rx="2.8" ry="1.8" fill="#22c55e" stroke="#166534" stroke-width="0.5"/>
    
    <!-- Mystical tentacles with varied lengths and curves -->
    <path d="M11 21 Q8 26 12 29" stroke="url(#tentacleGreen)" stroke-width="0.9" fill="none"/>
    <path d="M12.5 21.2 Q10.5 26 14 29" stroke="url(#tentacleGreen)" stroke-width="0.9" fill="none"/>
    <path d="M14 21.5 Q13 26 16 29" stroke="url(#tentacleGreen)" stroke-width="0.9" fill="none"/>
    <path d="M15.5 21.5 Q15.5 26 18 29" stroke="url(#tentacleGreen)" stroke-width="0.9" fill="none"/>
    <path d="M17 21.2 Q18 26 20 29" stroke="url(#tentacleGreen)" stroke-width="0.9" fill="none"/>
    <path d="M18.5 21 Q20.5 26 22 29" stroke="url(#tentacleGreen)" stroke-width="0.9" fill="none"/>
    <path d="M20 20.5 Q23 25 24 28" stroke="url(#tentacleGreen)" stroke-width="0.9" fill="none"/>
    <path d="M21.5 20 Q25.5 24 26 27" stroke="url(#tentacleGreen)" stroke-width="0.9" fill="none"/>
    
    <!-- Mysterious, otherworldly eyes -->
    <ellipse cx="14.5" cy="15" rx="1.2" ry="1.4" fill="#000000" stroke="#166534" stroke-width="0.4"/>
    <ellipse cx="17.5" cy="15" rx="1.2" ry="1.4" fill="#000000" stroke="#166534" stroke-width="0.4"/>
    <circle cx="14.7" cy="15.5" r="0.3" fill="#22c55e"/>
    <circle cx="17.7" cy="15.5" r="0.3" fill="#22c55e"/>
  </g>
</svg>
