<svg xmlns="http://www.w3.org/2000/svg" viewBox="0 0 32 32">
  <defs>
    <linearGradient id="squidGlow" x1="0%" y1="0%" x2="100%" y2="100%">
      <stop offset="0%" style="stop-color:#22C55E;stop-opacity:1" />
      <stop offset="100%" style="stop-color:#16A34A;stop-opacity:1" />
    </linearGradient>
    <linearGradient id="tentacleGlow" x1="0%" y1="0%" x2="100%" y2="100%">
      <stop offset="0%" style="stop-color:#65A30D;stop-opacity:1" />
      <stop offset="100%" style="stop-color:#4D7C0F;stop-opacity:1" />
    </linearGradient>
  </defs>
  
  <!-- Stylized squid from rewyr logo -->
  <g>
    <!-- Main body - elongated teardrop shape -->
    <path d="M16 6 Q20 8 22 12 Q20 16 16 18 Q12 16 10 12 Q12 8 16 6 Z" fill="url(#squidGlow)" stroke="#166534" stroke-width="0.6"/>
    
    <!-- Single large eye -->
    <circle cx="16" cy="12" r="1.5" fill="#F0F9FF" stroke="#166534" stroke-width="0.3"/>
    <circle cx="16" cy="12" r="0.8" fill="#1E40AF"/>
    
    <!-- Eight tentacles with small circles at ends -->
    <path d="M12 18 Q11 22 10 25" stroke="url(#tentacleGlow)" stroke-width="0.8" fill="none"/>
    <circle cx="10" cy="25" r="0.4" fill="url(#tentacleGlow)"/>
    
    <path d="M13 18 Q12.5 22 12 25" stroke="url(#tentacleGlow)" stroke-width="0.8" fill="none"/>
    <circle cx="12" cy="25" r="0.4" fill="url(#tentacleGlow)"/>
    
    <path d="M14 18 Q14 22 14 25" stroke="url(#tentacleGlow)" stroke-width="0.8" fill="none"/>
    <circle cx="14" cy="25" r="0.4" fill="url(#tentacleGlow)"/>
    
    <path d="M15 18 Q15.5 22 16 25" stroke="url(#tentacleGlow)" stroke-width="0.8" fill="none"/>
    <circle cx="16" cy="25" r="0.4" fill="url(#tentacleGlow)"/>
    
    <path d="M16 18 Q16.5 22 17 25" stroke="url(#tentacleGlow)" stroke-width="0.8" fill="none"/>
    <circle cx="17" cy="25" r="0.4" fill="url(#tentacleGlow)"/>
    
    <path d="M17 18 Q18 22 18 25" stroke="url(#tentacleGlow)" stroke-width="0.8" fill="none"/>
    <circle cx="18" cy="25" r="0.4" fill="url(#tentacleGlow)"/>
    
    <path d="M18 18 Q18.5 22 19 25" stroke="url(#tentacleGlow)" stroke-width="0.8" fill="none"/>
    <circle cx="19" cy="25" r="0.4" fill="url(#tentacleGlow)"/>
    
    <path d="M19 18 Q20 22 20 25" stroke="url(#tentacleGlow)" stroke-width="0.8" fill="none"/>
    <circle cx="20" cy="25" r="0.4" fill="url(#tentacleGlow)"/>
    
    <!-- Bubbles -->
    <circle cx="24" cy="8" r="0.6" fill="url(#squidGlow)" opacity="0.8"/>
    <circle cx="25" cy="9" r="0.4" fill="url(#squidGlow)" opacity="0.6"/>
    <circle cx="23" cy="9" r="0.3" fill="url(#squidGlow)" opacity="0.7"/>
    <circle cx="24" cy="10" r="0.2" fill="url(#squidGlow)" opacity="0.5"/>
  </g>
</svg>
